<?xml version="1.0"?>
<svg width="1080" height="1080" xmlns="http://www.w3.org/2000/svg" xmlns:svg="http://www.w3.org/2000/svg" version="1.1">

 <g class="layer">
  <title>Layer 1</title>
  <g id="8a0a1704-be95-4e7c-b156-025d43913874" transform="matrix(1 0 0 1 540 540)"/>
  <g id="svg_8" transform="matrix(10.3554, 0, 0, 10.3554, 538.586, 543.398)">
   <path d="m50,0l50,0l0,50c0,27.61 -22.39,50 -50,50c-27.61,0 -50,-22.39 -50,-50c0,-27.61 22.39,-50 50,-50z" fill="rgb(255,60,0)" fill-rule="evenodd" id="svg_9" stroke-dashoffset="0" stroke-miterlimit="4" transform=" translate(-50, -50)"/>
  </g>
  <g id="svg_10" transform="matrix(1, 0, 0, 1, 0, 0) translate(-66.6667, -19.0476) matrix(15.9613, 0, 0, 15.9613, 609.481, 563.179)">
   <path d="m20.07,-26.12l11.18,-12.2q1.16,-1.23 1.96,-2.23q0.79,-1 1.26,-1.87q0.48,-0.86 0.69,-1.63q0.21,-0.77 0.21,-1.51l0,0q0,-1.2 -0.92,-1.65q-0.91,-0.46 -3.13,-0.46l0,0l0,-3.73l19.52,0l0,3.73q-1.48,0 -2.8,0.46q-1.32,0.45 -2.58,1.3q-1.27,0.84 -2.5,2q-1.23,1.16 -2.5,2.57l0,0l-9.49,10.44l13.4,21.27q1.05,1.68 2.02,2.79q0.97,1.11 1.95,1.78q0.98,0.67 2,0.95q1.02,0.28 2.22,0.28l0,0l0.28,0l0,3.83l-3.87,0q-2.74,0 -4.81,-0.18q-2.08,-0.17 -3.64,-0.52q-1.57,-0.35 -2.69,-0.9q-1.13,-0.54 -1.97,-1.28q-0.84,-0.74 -1.53,-1.67q-0.69,-0.93 -1.35,-2.06l0,0l-9.71,-16.56l-3.2,2.5l0,12.16q0,1.55 0.3,2.46q0.3,0.92 0.79,1.41q0.5,0.49 1.2,0.65q0.7,0.16 1.48,0.16l0,0l3.02,0l0,3.83l-24.86,0l0,-3.83l3.03,0q0.77,0 1.44,-0.14q0.67,-0.14 1.18,-0.58q0.51,-0.44 0.79,-1.3q0.28,-0.86 0.28,-2.27l0,0l0,-35.09q0,-1.44 -0.28,-2.3q-0.28,-0.86 -0.79,-1.32q-0.51,-0.46 -1.18,-0.61q-0.67,-0.16 -1.44,-0.16l0,0l-3.03,0l0,-3.8l24.86,0l0,3.8l-3.02,0q-0.78,0 -1.48,0.16q-0.7,0.15 -1.2,0.65q-0.49,0.49 -0.79,1.4q-0.3,0.92 -0.3,2.46l0,0l0,16.81z" fill="rgb(255,255,255)" fill-rule="nonzero" id="svg_11" stroke-dashoffset="0" stroke-miterlimit="4" transform=" translate(-27.42, 25.7)"/>
  </g>
 </g>
</svg>